<?xml version="1.0" standalone="no"?>
<!DOCTYPE svg PUBLIC "-//W3C//DTD SVG 20010904//EN"
 "http://www.w3.org/TR/2001/REC-SVG-20010904/DTD/svg10.dtd">
<svg version="1.0" xmlns="http://www.w3.org/2000/svg"
 width="159.000000pt" height="159.000000pt" viewBox="0 0 159.000000 159.000000"
 preserveAspectRatio="xMidYMid meet">
<metadata>
Created by potrace 1.14, written by Peter Selinger 2001-2017
</metadata>
<g transform="translate(0.000000,159.000000) scale(0.100000,-0.100000)"
fill="#000000" stroke="none">
<path d="M677 1504 c-3 -3 -57 -15 -74 -16 -7 -1 -13 -5 -13 -10 0 -5 -4 -7
-9 -4 -14 9 -94 -74 -116 -119 -22 -45 -22 -46 -24 -79 -1 -24 -11 -31 -60
-41 -12 -3 -29 -7 -38 -10 -24 -6 -105 -26 -123 -30 -8 -2 -36 -9 -62 -15
l-46 -12 31 -33 c83 -85 97 -106 87 -126 -6 -10 -15 -19 -20 -19 -6 0 -10 -5
-10 -11 0 -6 -20 -30 -45 -55 -25 -24 -45 -48 -45 -53 0 -5 -13 -20 -30 -34
l-30 -25 58 -18 c31 -9 74 -26 95 -36 l37 -18 0 -224 c0 -124 3 -231 6 -240 3
-9 16 -16 28 -16 13 0 26 -3 30 -7 3 -4 12 -8 19 -9 7 -2 37 -12 67 -24 30
-12 63 -23 74 -25 10 -2 24 -9 32 -16 8 -6 14 -8 14 -4 0 4 7 2 15 -5 8 -7 15
-9 15 -5 0 4 7 2 15 -5 8 -7 15 -9 15 -5 0 4 6 3 13 -2 6 -6 33 -16 60 -24 26
-7 47 -17 47 -21 0 -4 23 0 52 8 28 9 60 18 70 20 10 2 27 6 38 9 11 3 29 7
40 10 11 3 29 7 40 10 11 3 29 7 40 10 11 3 29 7 40 10 11 3 29 7 40 10 11 3
29 7 41 10 11 2 29 7 39 10 10 3 28 8 39 10 12 3 31 7 44 11 12 3 32 7 44 10
12 2 35 9 50 15 16 6 29 10 31 10 1 -1 5 -1 10 -1 4 0 7 106 7 235 l0 235 34
10 c19 5 38 7 42 4 4 -2 10 0 13 5 3 5 23 12 43 16 21 4 32 10 26 12 -7 3 -13
11 -13 19 0 8 -5 14 -12 14 -6 0 -9 3 -5 6 3 4 1 12 -6 19 -20 21 -52 68 -49
71 1 2 -6 13 -15 23 -35 38 -42 49 -36 55 4 3 1 6 -5 6 -7 0 -12 9 -12 20 0
11 4 20 9 20 5 0 16 6 23 13 7 7 41 30 76 52 l63 39 -83 28 c-46 16 -90 32
-98 35 -8 3 -21 7 -29 9 -7 1 -18 7 -24 13 -6 6 -21 11 -33 11 -13 0 -26 5
-29 10 -4 6 -11 8 -16 5 -5 -4 -9 -1 -9 5 0 6 -4 8 -10 5 -5 -3 -16 -3 -22 2
-43 27 -128 42 -128 23 0 -5 -7 -10 -15 -10 -8 0 -15 -5 -15 -12 0 -6 -3 -9
-6 -5 -4 3 -13 0 -21 -8 -25 -25 -40 -17 -41 21 -1 20 -7 43 -13 50 -6 8 -9
14 -5 14 11 0 -21 53 -51 85 -40 43 -86 66 -149 74 -30 4 -55 6 -57 5z"/>
</g>
</svg>
