<?xml version="1.0" encoding="utf-8"?>
<!-- Generator: Adobe Illustrator 19.2.1, SVG Export Plug-In . SVG Version: 6.00 Build 0)  -->
<svg version="1.1" id="Layer_1" xmlns="http://www.w3.org/2000/svg" xmlns:xlink="http://www.w3.org/1999/xlink" x="0px" y="0px"
	 viewBox="0 0 188.067 150" style="enable-background:new 0 0 188.067 150;" xml:space="preserve">
<style type="text/css">
	.st0{display:none;fill:none;stroke:#FFFFFF;stroke-width:2;stroke-linecap:round;stroke-miterlimit:10;}
	.st1{fill:#5CDBA9;}
	.st2{fill:#5CDBFF;}
	.st3{fill:#42C18E;}
	.st4{fill:#4DC0FF;}
	.st5{fill:#459571;}
	.st6{fill:#457BA4;}
	.st7{fill:#1A9DED;}
	.st8{fill:#1A71ED;}
	.st9{fill:#58595B;}
	.st10{fill:#F9D35B;}
	.st11{fill:#414042;}
	.st12{opacity:0.4;fill:#414042;}
	.st13{fill:#EDDABB;}
	.st14{fill:#DECDB1;}
	.st15{fill:#F8E7D1;}
	.st16{fill:#C4DFED;}
	.st17{fill:#DEF8FF;}
	.st18{fill:#D1F1FF;}
	.st19{fill:#585963;}
	.st20{fill:#FF868A;}
	.st21{fill:#FF9296;}
	.st22{fill:#EC8287;}
	.st23{fill:#272D38;}
	.st24{fill:#F2F2F2;}
	.st25{fill:#59D6D6;}
	.st26{fill:#56C681;}
	.st27{clip-path:url(#SVGID_2_);fill:#E6E6E6;}
	.st28{fill:#54CBCB;}
	.st29{fill:#52BC7A;}
</style>
<g>
	<polygon class="st23" points="187.067,1 187.067,12 183.067,12 5.067,12 1.067,12 1.067,1 	"/>
	<polyline class="st23" points="183.067,110 183.067,115 94.067,115 5.067,115 5.067,110 183.067,110 	"/>
	<path class="st24" d="M80.677,54.7c-2.61-8.06-8.72-14.55-16.53-17.66c-2.68-1.08-5.57-1.76-8.58-1.96c-0.66-0.06-1.33-0.08-2-0.08
		c-1.9,0-3.75,0.19-5.54,0.54c-2.12,0.41-4.15,1.07-6.07,1.93c-1.8,0.8-3.5,1.78-5.07,2.93c-1.54,1.1-2.96,2.36-4.24,3.76
		c-1.3,1.39-2.45,2.92-3.45,4.55v0.01c-1.05,1.72-1.92,3.56-2.57,5.49c-0.73,2.07-1.21,4.25-1.42,6.51
		c-0.09,0.91-0.14,1.84-0.14,2.78c0,1.93,0.19,3.82,0.56,5.64c2.25,11.22,11.08,20.05,22.3,22.3c1.82,0.37,3.71,0.56,5.64,0.56
		c0.94,0,1.87-0.05,2.78-0.14c2.28-0.22,4.48-0.7,6.57-1.43c1.91-0.66,3.73-1.52,5.43-2.56h0.01c1.63-1,3.16-2.15,4.55-3.45
		c1.4-1.28,2.66-2.7,3.76-4.24c1.15-1.57,2.13-3.27,2.93-5.07c0.87-1.93,1.52-3.97,1.93-6.1c0.36-1.78,0.54-3.63,0.54-5.51
		c0-0.67-0.02-1.34-0.08-2C81.837,59.14,81.387,56.86,80.677,54.7 M183.067,12v98h-178V12H183.067 M163.067,96v-5.5V85v-5.5v-5.69
		v-5.88v-5.5V40h-11v11.43v5.5v5.88v5.69V74v5.5V85v5.5V96h5.5H163.067 M145.067,96v-5.5V80h-10.5h-0.5v5v5.5V96h5.5H145.067
		 M127.067,96v-5.5V85v-5.5V31h-11v37.5V74v5.5V85v5.5V96h5.5H127.067 M109.067,96V56h-11v29v5.5V96h5.5H109.067"/>
	<polygon class="st25" points="163.067,90.5 163.067,96 152.067,85 152.067,79.5 	"/>
	<polygon class="st25" points="163.067,85 163.067,90.5 152.067,79.5 152.067,74 	"/>
	<polygon class="st25" points="163.067,79.5 163.067,85 152.067,74 152.067,68.5 	"/>
	<polygon class="st25" points="163.067,73.81 163.067,79.5 152.067,68.5 152.067,62.81 	"/>
	<polygon class="st25" points="163.067,67.93 163.067,73.81 152.067,62.81 152.067,56.93 	"/>
	<polygon class="st25" points="163.067,62.43 163.067,67.93 152.067,56.93 152.067,51.43 	"/>
	<polygon class="st26" points="163.067,40 163.067,62.43 152.067,51.43 152.067,40 	"/>
	<polygon class="st25" points="163.067,96 157.567,96 152.067,90.5 152.067,85 	"/>
	<polygon class="st25" points="157.567,96 152.067,96 152.067,90.5 	"/>
	<polygon class="st25" points="145.067,90.5 145.067,96 134.067,85 134.067,80 134.567,80 	"/>
	<polygon class="st26" points="145.067,80 145.067,90.5 134.567,80 	"/>
	<polygon class="st25" points="145.067,96 139.567,96 134.067,90.5 134.067,85 	"/>
	<polygon class="st25" points="139.567,96 134.067,96 134.067,90.5 	"/>
	<polygon class="st25" points="127.067,90.5 127.067,96 116.067,85 116.067,79.5 	"/>
	<polygon class="st25" points="127.067,85 127.067,90.5 116.067,79.5 116.067,74 	"/>
	<polygon class="st25" points="127.067,79.5 127.067,85 116.067,74 116.067,68.5 	"/>
	<polygon class="st26" points="127.067,31 127.067,79.5 116.067,68.5 116.067,31 	"/>
	<polygon class="st25" points="127.067,96 121.567,96 116.067,90.5 116.067,85 	"/>
	<polygon class="st25" points="121.567,96 116.067,96 116.067,90.5 	"/>
	<polygon class="st26" points="109.067,56 109.067,96 98.067,85 98.067,56 	"/>
	<polygon class="st25" points="109.067,96 103.567,96 98.067,90.5 98.067,85 	"/>
	<polygon class="st25" points="103.567,96 98.067,96 98.067,90.5 	"/>
	<path class="st25" d="M81.987,61.5c0.06,0.66,0.08,1.33,0.08,2c0,1.88-0.18,3.73-0.54,5.51L81.486,69l-10.97-10.97L70.507,58
		l6.05-1.96l0.01,0.04L81.987,61.5"/>
	<path class="st25" d="M81.987,61.5l-5.42-5.42l-0.01-0.04l4.12-1.34C81.387,56.86,81.837,59.14,81.987,61.5"/>
	<path class="st25" d="M81.486,69l0.04,0.01c-0.41,2.13-1.06,4.17-1.93,6.1l-15.1-15.1l-0.02-0.05l6.03-1.96l0.01,0.03L81.486,69"/>
	<path class="st26" d="M80.677,54.7l-4.12,1.34L70.507,58l-6.03,1.96l-6.05,1.96l-4.86,1.58l1.83-4.59l2.29-5.71l2.28-5.72
		l2.29-5.71l1.81-4.53l0.08-0.2C71.957,40.15,78.067,46.64,80.677,54.7"/>
	<path class="st25" d="M64.496,60.01l15.1,15.1c-0.8,1.8-1.78,3.5-2.93,5.07l-18.24-18.25v-0.01l6.05-1.96L64.496,60.01"/>
	<path class="st25" d="M58.427,61.93l18.24,18.25c-1.1,1.54-2.36,2.96-3.76,4.24l-0.07-0.07l-20.06-20.06l0.79-0.79l4.86-1.58V61.93
		"/>
	<path class="st25" d="M72.837,84.35l0.07,0.07c-1.39,1.3-2.92,2.45-4.55,3.45h-0.01l-39.15-39.15v-0.01c1-1.63,2.15-3.16,3.45-4.55
		l20.13,20.13L72.837,84.35"/>
	<path class="st25" d="M29.197,48.72l39.15,39.15c-1.7,1.04-3.52,1.9-5.43,2.56l-36.19-36.19l-0.1-0.03
		C27.276,52.28,28.146,50.44,29.197,48.72"/>
	<path class="st25" d="M64.147,37.04l-0.08,0.2l-1.81,4.53l-6.69-6.69C58.577,35.28,61.467,35.96,64.147,37.04"/>
	<path class="st25" d="M26.727,54.24l36.19,36.19c-2.09,0.73-4.29,1.21-6.57,1.43l-31.14-31.14c0.21-2.26,0.69-4.44,1.42-6.51
		L26.727,54.24"/>
	<path class="st25" d="M62.257,41.77l-2.29,5.71l-11.94-11.94c1.79-0.35,3.64-0.54,5.54-0.54c0.67,0,1.34,0.02,2,0.08L62.257,41.77"
		/>
	<path class="st25" d="M59.967,47.48l-2.28,5.72l-15.73-15.73c1.92-0.86,3.95-1.52,6.07-1.93L59.967,47.48"/>
	<path class="st25" d="M57.687,53.2l-2.29,5.71L36.887,40.4c1.57-1.15,3.27-2.13,5.07-2.93L57.687,53.2"/>
	<path class="st25" d="M25.207,60.72l31.14,31.14c-0.91,0.09-1.84,0.14-2.78,0.14c-1.93,0-3.82-0.19-5.64-0.56l-22.3-22.3
		c-0.37-1.82-0.56-3.71-0.56-5.64C25.067,62.56,25.116,61.63,25.207,60.72"/>
	<path class="st25" d="M55.397,58.91l-1.83,4.59l-0.79,0.79l-20.13-20.13c1.28-1.4,2.7-2.66,4.24-3.76L55.397,58.91"/>
	<path class="st25" d="M25.627,69.14l22.3,22.3C36.707,89.19,27.877,80.36,25.627,69.14"/>
	<g>
		<defs>
			<path id="SVGID_1_" d="M132.066,12H5.067v98h7.58l26.617-21.843C32.33,84.129,27.255,77.261,25.627,69.14
				c-0.37-1.82-0.56-3.71-0.56-5.64l0,0l0,0c0-0.94,0.05-1.87,0.14-2.78l0,0c0.21-2.26,0.69-4.44,1.42-6.51l0,0
				c0.65-1.93,1.52-3.77,2.57-5.49v-0.01l0,0c1-1.63,2.15-3.16,3.45-4.55l0,0l0,0c1.28-1.4,2.7-2.66,4.24-3.76l0,0
				c1.57-1.15,3.27-2.13,5.07-2.93l0,0c1.92-0.86,3.95-1.52,6.07-1.93l0,0c1.79-0.35,3.64-0.54,5.54-0.54c0.67,0,1.34,0.02,2,0.08
				l0,0c3.01,0.2,5.9,0.88,8.58,1.96l0,0l0,0c7.676,3.056,13.709,9.378,16.392,17.245L132.066,12"/>
		</defs>
		<clipPath id="SVGID_2_">
			<use xlink:href="#SVGID_1_"  style="overflow:visible;"/>
		</clipPath>
		<rect x="5.067" y="12" class="st27" width="126.999" height="98"/>
	</g>
	<polyline class="st28" points="76.556,56.04 70.507,58 70.517,58.03 72.977,60.491 77.371,56.885 76.566,56.08 76.556,56.04 	"/>
	<polyline class="st28" points="79.611,55.047 76.556,56.04 76.566,56.08 77.371,56.885 79.611,55.047 	"/>
	<polyline class="st28" points="70.507,58 64.477,59.96 64.496,60.01 68.583,64.097 72.977,60.491 70.517,58.03 70.507,58 	"/>
	<path class="st29" d="M64.147,37.04L64.147,37.04l-0.08,0.2l-1.81,4.53l-2.29,5.71l-2.28,5.72l-2.29,5.71l-1.83,4.59l4.86-1.58
		l6.05-1.96l6.03-1.96l6.05-1.96l3.054-0.994l0.928-0.761C77.856,46.418,71.822,40.096,64.147,37.04"/>
	<polyline class="st28" points="64.477,59.96 58.427,61.92 58.427,61.93 64.193,67.699 68.583,64.097 64.496,60.01 64.477,59.96 	
		"/>
	<polyline class="st28" points="58.427,61.92 53.566,63.5 52.777,64.29 59.795,71.308 64.193,67.699 58.427,61.93 58.427,61.92 	"/>
	<path class="st28" d="M32.647,44.16c-1.3,1.39-2.45,2.92-3.45,4.55l0,0v0.01l0,0l26.199,26.199l4.4-3.61l-7.018-7.018L32.647,44.16
		"/>
	<path class="st28" d="M29.197,48.72L29.197,48.72L29.197,48.72c-1.05,1.72-1.92,3.56-2.57,5.49l0.1,0.03l24.28,24.28l4.389-3.601
		L29.197,48.72"/>
	<path class="st28" d="M55.567,35.08l6.69,6.69l1.81-4.53l0.08-0.2C61.467,35.96,58.577,35.28,55.567,35.08"/>
	<path class="st28" d="M26.627,54.21c-0.73,2.07-1.21,4.25-1.42,6.51l21.406,21.406l4.394-3.606l-24.28-24.28L26.627,54.21"/>
	<path class="st28" d="M53.566,35c-1.9,0-3.75,0.19-5.54,0.54l11.94,11.94l2.29-5.71l-6.69-6.69C54.907,35.02,54.237,35,53.566,35"
		/>
	<path class="st28" d="M48.027,35.54c-2.12,0.41-4.15,1.07-6.07,1.93l15.73,15.73l2.28-5.72L48.027,35.54"/>
	<path class="st28" d="M41.957,37.47c-1.8,0.8-3.5,1.78-5.07,2.93l18.51,18.51l2.29-5.71L41.957,37.47"/>
	<path class="st28" d="M25.207,60.72c-0.09,0.91-0.14,1.84-0.14,2.78l0,0c0,1.93,0.19,3.82,0.56,5.64l0,0l0,0l16.592,16.592
		l4.394-3.606L25.207,60.72"/>
	<path class="st28" d="M36.887,40.4c-1.54,1.1-2.96,2.36-4.24,3.76l0,0l20.13,20.13l0.79-0.79l1.83-4.59L36.887,40.4"/>
	<path class="st28" d="M25.627,69.14L25.627,69.14c1.629,8.121,6.703,14.989,13.637,19.017l2.955-2.425L25.627,69.14"/>
	<path class="st23" d="M188.067,0h-188v13h4v103h89v24.101c-2.279,0.465-4,2.484-4,4.899c0,2.757,2.243,5,5,5s5-2.243,5-5
		c0-2.414-1.721-4.434-4-4.899V116h89V13h4V0z M97.067,145c0,1.654-1.346,3-3,3s-3-1.346-3-3s1.346-3,3-3S97.067,143.346,97.067,145
		z M182.067,109h-176V13h176V109z M6.067,114v-3h176v3H6.067z M186.067,11h-2h-1h-178h-1h-2V2h184V11z"/>
	<path class="st23" d="M98.067,97h11c0.553,0,1-0.447,1-1V56c0-0.552-0.447-1-1-1h-11c-0.553,0-1,0.448-1,1v40
		C97.067,96.553,97.514,97,98.067,97z M99.067,87.414L106.652,95h-2.672l-4.914-4.914V87.414z M99.067,92.914L101.152,95h-2.086
		V92.914z M108.067,57v36.586l-9-9V57H108.067z"/>
	<path class="st23" d="M116.067,97h11c0.553,0,1-0.447,1-1V31c0-0.552-0.447-1-1-1h-11c-0.553,0-1,0.448-1,1v65
		C115.067,96.553,115.514,97,116.067,97z M126.067,82.586l-9-9v-2.672l9,9V82.586z M126.067,85.414v2.672l-9-9v-2.672
		L126.067,85.414z M126.067,90.914v2.672l-9-9v-2.672L126.067,90.914z M124.652,95h-2.672l-4.914-4.914v-2.672L124.652,95z
		 M117.067,92.914L119.152,95h-2.086V92.914z M126.067,32v45.086l-9-9V32H126.067z"/>
	<path class="st23" d="M134.067,97h11c0.553,0,1-0.447,1-1V80c0-0.553-0.447-1-1-1h-11c-0.553,0-1,0.447-1,1v16
		C133.067,96.553,133.514,97,134.067,97z M144.067,90.914v2.672l-9-9v-2.672L144.067,90.914z M142.652,95h-2.672l-4.914-4.914
		v-2.672L142.652,95z M135.067,92.914L137.152,95h-2.086V92.914z M144.067,88.086L136.981,81h7.086V88.086z"/>
	<path class="st23" d="M152.067,97h11c0.553,0,1-0.447,1-1V40c0-0.552-0.447-1-1-1h-11c-0.553,0-1,0.448-1,1v56
		C151.067,96.553,151.514,97,152.067,97z M162.067,65.516l-9-9v-2.672l9,9V65.516z M162.067,68.344v3.052l-9-9v-3.052
		L162.067,68.344z M162.067,74.224v2.862l-9-9v-2.862L162.067,74.224z M162.067,79.914v2.672l-9-9v-2.672L162.067,79.914z
		 M162.067,85.414v2.672l-9-9v-2.672L162.067,85.414z M162.067,90.914v2.672l-9-9v-2.672L162.067,90.914z M160.652,95h-2.672
		l-4.914-4.914v-2.672L160.652,95z M153.067,92.914L155.152,95h-2.086V92.914z M162.067,41v19.016l-9-9V41H162.067z"/>
	<path class="st23" d="M47.728,92.421C49.623,92.805,51.588,93,53.567,93c0.938,0,1.907-0.049,2.877-0.145
		c2.352-0.228,4.641-0.727,6.799-1.48c1.97-0.681,3.862-1.573,5.626-2.651l-0.517-0.845l0-0.013l0.001-0.001l0.527,0.859
		c1.718-1.055,3.302-2.256,4.701-3.564c1.451-1.326,2.763-2.806,3.892-4.388c1.185-1.616,2.207-3.384,3.035-5.25
		c0.907-2.011,1.58-4.138,1.999-6.313c0.371-1.835,0.56-3.755,0.56-5.708c0-0.8-0.026-1.464-0.082-2.063
		c-0.153-2.403-0.61-4.774-1.356-7.044c-2.709-8.366-8.946-15.03-17.107-18.28c-2.839-1.144-5.829-1.827-8.863-2.028
		C55.034,34.027,54.351,34,53.567,34c-1.908,0-3.837,0.188-5.729,0.558c-2.135,0.413-4.25,1.085-6.287,1.998
		c-1.871,0.832-3.639,1.854-5.244,3.03c-1.592,1.137-3.071,2.449-4.39,3.891c-1.316,1.407-2.518,2.992-3.572,4.71l0.859,0.527
		l-0.001,0.001l-0.014,0l-0.845-0.516c-1.105,1.812-2.002,3.727-2.66,5.678c-0.762,2.162-1.257,4.433-1.472,6.745
		c-0.096,0.971-0.145,1.939-0.145,2.878c0,1.978,0.195,3.943,0.579,5.837C26.988,81.018,36.049,90.078,47.728,92.421z
		 M27.588,72.516L44.552,89.48C36.578,86.733,30.335,80.49,27.588,72.516z M48.407,90.507L26.556,68.656
		c-0.321-1.678-0.49-3.41-0.49-5.156c0-0.162,0.009-0.329,0.013-0.493l27.987,27.986C52.125,91.033,50.243,90.86,48.407,90.507z
		 M29.413,50.351l37.303,37.303c-1.137,0.622-2.326,1.158-3.549,1.613L27.804,53.904C28.249,52.692,28.784,51.503,29.413,50.351z
		 M61.043,89.971c-1.401,0.394-2.854,0.668-4.336,0.836L26.258,60.358c0.162-1.471,0.437-2.921,0.84-4.333L61.043,89.971z
		 M72.92,83.019L54.235,64.335l3.912-1.27l17.197,17.207C74.604,81.239,73.794,82.158,72.92,83.019z M58.797,47.724l-1.477,3.695
		L43.721,37.821c1.308-0.505,2.643-0.896,3.988-1.185L58.797,47.724z M56.512,53.44l-1.477,3.695L38.441,40.541
		c1.046-0.695,2.154-1.316,3.308-1.864L56.512,53.44z M76.526,78.625L60.282,62.372l3.897-1.265l14.211,14.211
		C77.845,76.469,77.224,77.576,76.526,78.625z M80.008,55.969c0.261,0.911,0.475,1.836,0.637,2.775l-2.251-2.251L80.008,55.969z
		 M76.258,57.186l4.755,4.755c0.033,0.47,0.054,0.966,0.054,1.559c0,1.166-0.08,2.315-0.223,3.443l-8.49-8.49L76.258,57.186z
		 M70.219,59.146l10.206,10.207c-0.291,1.362-0.68,2.699-1.178,3.993L66.314,60.414L70.219,59.146z M79.391,54.066L55.285,61.89
		l9.409-23.525C71.545,41.383,76.826,47.024,79.391,54.066z M61.89,39.989l-3.553-3.552c1.53,0.266,3.031,0.667,4.496,1.195
		L61.89,39.989z M55.126,36.054l5.956,5.956l-1.477,3.695l-9.481-9.48C51.271,36.08,52.423,36,53.567,36
		C54.142,36,54.646,36.021,55.126,36.054z M36.795,41.722l17.432,17.433l-1.477,3.695L34.048,44.147
		C34.905,43.276,35.823,42.466,36.795,41.722z M32.69,45.618l38.759,38.759c-0.92,0.793-1.912,1.534-2.963,2.219L30.471,48.581
		C31.154,47.531,31.895,46.54,32.69,45.618z"/>
</g>
</svg>
