<?xml version="1.0" encoding="utf-8"?>
<!-- Generator: Adobe Illustrator 19.2.1, SVG Export Plug-In . SVG Version: 6.00 Build 0)  -->
<svg version="1.1" id="Layer_1" xmlns="http://www.w3.org/2000/svg" xmlns:xlink="http://www.w3.org/1999/xlink" x="0px" y="0px"
	 viewBox="0 0 180 150" style="enable-background:new 0 0 180 150;" xml:space="preserve">
<style type="text/css">
	.st0{display:none;fill:none;stroke:#FFFFFF;stroke-width:2;stroke-linecap:round;stroke-miterlimit:10;}
	.st1{fill:#9D2106;}
	.st2{fill:#822104;}
	.st3{fill:#951B05;}
	.st4{fill:#FFFFFF;}
	.st5{fill:#8A1F0C;}
	.st6{fill:#E2E3E4;}
	.st7{fill:#6DA2C8;}
	.st8{fill:#D6E6EF;}
	.st9{fill:#B49CB5;}
	.st10{fill:#AC9EB6;}
	.st11{fill:#EBF3F7;}
	.st12{fill:#A69FB5;}
	.st13{fill:#B99FB5;}
	.st14{fill:#D093FB;}
	.st15{fill:#45F8B9;}
	.st16{fill:#41E8A3;}
	.st17{fill:#3072AA;}
	.st18{fill:#FD9E99;}
	.st19{fill:#9ED098;}
	.st20{fill:#75C5B6;}
	.st21{fill:#8DB485;}
	.st22{fill:#5AB49E;}
	.st23{fill:#E4E5E6;}
	.st24{fill:#788782;}
	.st25{fill:#CFD1D2;}
	.st26{fill:#BABCBE;}
	.st27{fill:#998379;}
	.st28{fill:#826D64;}
	.st29{fill:#EFF0F0;}
	.st30{fill:#58515B;}
	.st31{fill:#B98BD2;}
	.st32{fill:#9756AC;}
	.st33{fill:#814497;}
	.st34{fill:#25B598;}
	.st35{fill:#008B84;}
	.st36{fill:#7BE4C2;}
	.st37{fill:#25A48D;}
	.st38{fill:#68DAB4;}
	.st39{fill:#FD76A2;}
	.st40{fill:#E76899;}
	.st41{fill:#9CFFB4;}
	.st42{fill:#4D5CEA;}
	.st43{fill:#FF9B95;}
	.st44{fill:#FF868C;}
	.st45{fill:#FF6B77;}
	.st46{fill:#EF85FF;}
	.st47{fill:#C44FD7;}
	.st48{fill:#2DAB5B;}
	.st49{fill:#4EC5FF;}
	.st50{fill:#3EA2FF;}
	.st51{fill:#D898FF;}
	.st52{fill:#76DDED;}
	.st53{fill:#D888FF;}
	.st54{fill:#A37550;}
	.st55{fill:#956744;}
	.st56{fill:#006838;}
	.st57{fill:#005E26;}
	.st58{fill:#5D3A47;}
	.st59{fill:#FFBC13;}
	.st60{fill:#808083;}
	.st61{fill:#56C681;}
	.st62{fill:#6D6E71;}
	.st63{fill:#D3951D;}
	.st64{fill:#3FB068;}
	.st65{fill:#FBEEEE;}
	.st66{fill:#FBF0F1;}
	.st67{fill:#F9E7E8;}
	.st68{fill:#F5D9DB;}
	.st69{fill:#F1C9CC;}
	.st70{fill:#44A468;}
	.st71{fill:#389D61;}
	.st72{fill:#E7A1A5;}
	.st73{fill:#00774E;}
	.st74{fill:#673DAB;}
	.st75{fill:#DEFF5C;}
	.st76{fill:#00BFE0;}
	.st77{fill:#E1329F;}
	.st78{fill:#00BAA3;}
	.st79{fill:#00DCA3;}
	.st80{fill:#00A9E0;}
	.st81{fill:#FF329F;}
	.st82{fill:#504239;}
	.st83{fill:#FD86AE;}
	.st84{fill:#F5A7D6;}
	.st85{fill:#A54A78;}
	.st86{fill:#715D94;}
	.st87{fill:#52A871;}
	.st88{fill:#F9CA40;}
	.st89{fill:#F9B240;}
</style>
<g>
	<g>
		<ellipse class="st34" cx="12.043" cy="78" rx="11.957" ry="12.07"/>
		<ellipse class="st34" cx="168.043" cy="78" rx="11.957" ry="12.07"/>
		<ellipse class="st34" cx="60.043" cy="42.07" rx="11.957" ry="12.07"/>
		<ellipse class="st34" cx="119.957" cy="42.07" rx="11.957" ry="12.07"/>
		<ellipse class="st34" cx="90.043" cy="12.07" rx="11.957" ry="12.07"/>
		<ellipse class="st35" cx="59.994" cy="42.07" rx="8.985" ry="9.07"/>
		<ellipse class="st35" cx="11.985" cy="78.07" rx="8.985" ry="9.07"/>
		<ellipse class="st34" cx="20.985" cy="27.93" rx="11.957" ry="12.07"/>
		<ellipse class="st34" cx="158.957" cy="27.93" rx="11.957" ry="12.07"/>
		<ellipse class="st35" cx="167.97" cy="78.07" rx="8.985" ry="9.07"/>
		<ellipse class="st35" cx="20.985" cy="27.93" rx="8.985" ry="9.07"/>
		<ellipse class="st35" cx="90" cy="11.93" rx="8.985" ry="9.07"/>
		<path class="st34" d="M134,117v12.05c0,2.18-1.77,3.95-3.96,3.95H97.77H81.73H49.91c-2.19,0-3.96-1.77-3.96-3.95V117H134z M92,125
			c0-1.1-0.9-2-2-2s-2,0.9-2,2s0.9,2,2,2S92,126.1,92,125z"/>
		<rect x="45.95" y="84" class="st36" width="88.05" height="33"/>
		<path class="st34" d="M134,78.96V84H45.95v-5.04c0-2.19,1.77-3.96,3.96-3.96h80.13C132.23,75,134,76.77,134,78.96z M58.95,80
			c0-0.55-0.44-1-1-1c-0.55,0-1,0.45-1,1s0.45,1,1,1C58.51,81,58.95,80.55,58.95,80z M55.95,80c0-0.55-0.44-1-1-1
			c-0.55,0-1,0.45-1,1s0.45,1,1,1C55.51,81,55.95,80.55,55.95,80z M52.95,80c0-0.55-0.44-1-1-1c-0.55,0-1,0.45-1,1s0.45,1,1,1
			C52.51,81,52.95,80.55,52.95,80z"/>
		<g>
			<path class="st37" d="M54.95,129.05V117h-9v12.05c0,2.18,1.77,3.95,3.96,3.95h9C56.72,133,54.95,131.23,54.95,129.05z"/>
		</g>
		<path class="st34" d="M100.37,147.51c0.03,0.17,0.04,0.33,0.02,0.49h-6.15h-8.49h-6.14c-0.02-0.16-0.01-0.32,0.02-0.49l2.1-14.51
			h16.04L100.37,147.51z"/>
		<g>
			<path class="st37" d="M53.95,80c0-0.55,0.45-1,1-1v-0.04c0-2.19,1.77-3.96,3.96-3.96h-9c-2.19,0-3.96,1.77-3.96,3.96V84h9v-3
				C54.4,81,53.95,80.55,53.95,80z M51.95,81c-0.55,0-1-0.45-1-1s0.45-1,1-1c0.56,0,1,0.45,1,1S52.51,81,51.95,81z"/>
		</g>
		<path class="st37" d="M90.73,133h-9l-2.1,14.51c-0.03,0.17-0.04,0.33-0.02,0.49h6.14h2.86c-0.02-0.16-0.01-0.32,0.02-0.49
			L90.73,133z"/>
		<circle class="st36" cx="90" cy="125" r="2"/>
		<rect x="45.95" y="84" class="st38" width="9" height="33"/>
		<g>
			<circle class="st4" cx="57" cy="42" r="1"/>
			<circle class="st4" cx="60" cy="42" r="1"/>
			<circle class="st4" cx="63" cy="42" r="1"/>
		</g>
		<path class="st4" d="M93.738,10C93.883,10,94,9.883,94,9.738V8.262C94,8.117,93.883,8,93.738,8h-1.476C92.117,8,92,8.117,92,8.262
			V8.5h-4V8.262C88,8.117,87.883,8,87.738,8h-1.476C86.117,8,86,8.117,86,8.262v1.476C86,9.883,86.117,10,86.262,10H86.5v4h-0.238
			C86.117,14,86,14.117,86,14.262v1.476C86,15.883,86.117,16,86.262,16h1.476C87.883,16,88,15.883,88,15.738V15.5h4v0.238
			C92,15.883,92.117,16,92.262,16h1.476C93.883,16,94,15.883,94,15.738v-1.476C94,14.117,93.883,14,93.738,14H93.5v-4H93.738z
			 M92.5,14h-0.238C92.117,14,92,14.117,92,14.262V14.5h-4v-0.238C88,14.117,87.883,14,87.738,14H87.5v-4h0.238
			C87.883,10,88,9.883,88,9.738V9.5h4v0.238C92,9.883,92.117,10,92.262,10H92.5V14z"/>
		<ellipse class="st35" cx="119.991" cy="42.07" rx="8.985" ry="9.07"/>
		<ellipse class="st35" cx="158.985" cy="27.93" rx="8.985" ry="9.07"/>
		<path class="st4" d="M24.775,23.729c-0.274-0.273-0.693-0.344-1.052-0.197l-5.476,1.555c-0.419,0.167-0.746,0.553-0.834,0.982
			c-0.069,0.34,0.02,0.664,0.244,0.888l1.051,1.051l-2.406,2.313c-0.097,0.093-0.152,0.221-0.153,0.355s0.052,0.264,0.146,0.358
			l1.186,1.186c0.098,0.098,0.226,0.146,0.354,0.146s0.256-0.049,0.354-0.146l2.368-2.364l0.99,0.991
			c0.175,0.175,0.41,0.267,0.665,0.267c0.073,0,0.148-0.007,0.225-0.023c0.428-0.088,0.813-0.415,0.998-0.883l1.521-5.378
			C25.118,24.424,25.049,24.002,24.775,23.729z M22.49,29.885c-0.062,0.155-0.225,0.235-0.235,0.254l-1.344-1.344
			c-0.098-0.098-0.226-0.146-0.354-0.146s-0.256,0.049-0.354,0.146l-2.368,2.364l-0.472-0.472l2.406-2.312
			c0.001-0.001,0.002-0.003,0.003-0.004c0.001-0.001,0.003-0.001,0.004-0.003c0.022-0.022,0.032-0.049,0.048-0.073
			c0.021-0.029,0.046-0.056,0.059-0.089c0.012-0.028,0.012-0.058,0.019-0.087c0.007-0.034,0.019-0.066,0.02-0.1
			c0-0.031-0.01-0.06-0.016-0.091c-0.006-0.033-0.007-0.066-0.019-0.097c-0.012-0.03-0.034-0.054-0.052-0.081
			c-0.018-0.027-0.029-0.058-0.052-0.082c-0.001-0.001-0.003-0.002-0.004-0.003c-0.001-0.001-0.001-0.003-0.003-0.004l-1.387-1.366
			c-0.006-0.055,0.074-0.218,0.18-0.264l5.427-1.538c0.017-0.004,0.03-0.094,0.046-0.1L22.49,29.885z"/>
		<path class="st4" d="M123.146,41.309l-4.599-2.749c-0.232-0.097-0.498-0.073-0.711,0.067c-0.211,0.14-0.337,0.375-0.337,0.628
			v5.435c0,0.253,0.126,0.488,0.337,0.628c0.117,0.078,0.252,0.12,0.398,0.12c0.117,0,0.243-0.027,0.375-0.085l4.514-2.704
			c0.257-0.126,0.421-0.387,0.422-0.676C123.546,41.668,123.365,41.396,123.146,41.309z M118.5,44.259V39.69l3.813,2.279
			L118.5,44.259z"/>
		<path class="st4" d="M162.484,24.755c-0.225-0.162-0.536-0.111-0.698,0.115l-3.849,5.36l-1.66-1.66
			c-0.195-0.195-0.512-0.195-0.707,0s-0.195,0.512,0,0.707l2.076,2.076c0.094,0.094,0.222,0.146,0.354,0.146
			c0.014,0,0.027,0,0.041-0.001c0.146-0.012,0.279-0.088,0.365-0.207l4.192-5.838C162.76,25.229,162.708,24.917,162.484,24.755z"/>
		<g>
			<path class="st4" d="M7.573,75.5h8.898c0.276,0,0.5-0.224,0.5-0.5s-0.224-0.5-0.5-0.5H7.573c-0.276,0-0.5,0.224-0.5,0.5
				S7.297,75.5,7.573,75.5z"/>
			<path class="st4" d="M16.472,77.57H7.573c-0.276,0-0.5,0.224-0.5,0.5s0.224,0.5,0.5,0.5h8.898c0.276,0,0.5-0.224,0.5-0.5
				S16.748,77.57,16.472,77.57z"/>
			<path class="st4" d="M16.472,80.641H7.573c-0.276,0-0.5,0.224-0.5,0.5s0.224,0.5,0.5,0.5h8.898c0.276,0,0.5-0.224,0.5-0.5
				S16.748,80.641,16.472,80.641z"/>
		</g>
		<path class="st4" d="M172.461,76.309c-0.025-0.061-0.062-0.116-0.108-0.162l-3.5-3.5c-0.046-0.046-0.101-0.083-0.162-0.108
			c-0.06-0.025-0.126-0.039-0.192-0.039H165c-0.276,0-0.5,0.224-0.5,0.5v9c0,0.276,0.224,0.5,0.5,0.5h7c0.276,0,0.5-0.224,0.5-0.5
			v-5.499C172.5,76.434,172.486,76.369,172.461,76.309z M168.999,74.207l1.794,1.794L168.999,76V74.207z M165.5,81.5v-8h2.499V76
			c0,0.552,0.449,1.001,1.001,1.001h2.5V81.5H165.5z"/>
		<path class="st4" d="M64.11,101.7c-0.256,0-0.512-0.098-0.707-0.293c-0.391-0.391-0.391-1.023,0-1.414l10.659-10.66
			c0.391-0.391,1.023-0.391,1.414,0s0.391,1.023,0,1.414l-10.659,10.66C64.622,101.603,64.366,101.7,64.11,101.7z"/>
		<path class="st4" d="M65.86,108.86c-0.256,0-0.512-0.098-0.707-0.293c-0.391-0.391-0.391-1.023,0-1.414l17.819-17.82
			c0.391-0.391,1.023-0.391,1.414,0s0.391,1.023,0,1.414l-17.819,17.82C66.372,108.763,66.116,108.86,65.86,108.86z"/>
		<path class="st4" d="M73.61,110.02c-0.256,0-0.512-0.098-0.707-0.293c-0.391-0.391-0.391-1.023,0-1.414l11.52-11.52
			c0.391-0.391,1.023-0.391,1.414,0s0.391,1.023,0,1.414l-11.52,11.52C74.122,109.922,73.866,110.02,73.61,110.02z"/>
	</g>
	<g>
		<path class="st35" d="M130.04,73H49.91c-3.286,0-5.96,2.674-5.96,5.96v50.09c0,3.281,2.674,5.95,5.96,5.95h29.51l-1.591,11H70
			c-1.104,0-2,0.896-2,2s0.896,2,2,2h40c1.104,0,2-0.896,2-2s-0.896-2-2-2h-7.869l-1.972-11h29.88c3.286,0,5.96-2.669,5.96-5.95
			V78.96C136,75.674,133.326,73,130.04,73z M47.95,85H132v30H47.95V85z M49.91,77h80.13c1.081,0,1.96,0.879,1.96,1.96V83H47.95
			v-4.04C47.95,77.879,48.829,77,49.91,77z M98.068,146H81.869l1.592-11h12.634L98.068,146z M130.04,131H97.829
			c-0.006,0-0.012,0-0.018,0H49.91c-1.081,0-1.96-0.875-1.96-1.95V119H132v10.05C132,130.125,131.121,131,130.04,131z"/>
		<path class="st35" d="M90,122c-1.654,0-3,1.346-3,3s1.346,3,3,3s3-1.346,3-3S91.654,122,90,122z M90,126c-0.552,0-1-0.448-1-1
			s0.448-1,1-1s1,0.448,1,1S90.552,126,90,126z"/>
		<path class="st35" d="M57.95,81c0.56,0,1-0.45,1-1s-0.44-1-1-1c-0.55,0-1,0.45-1,1S57.4,81,57.95,81z"/>
		<path class="st35" d="M54.95,81c0.56,0,1-0.45,1-1s-0.44-1-1-1c-0.55,0-1,0.45-1,1S54.4,81,54.95,81z"/>
		<path class="st35" d="M51.95,81c0.56,0,1-0.45,1-1s-0.44-1-1-1c-0.55,0-1,0.45-1,1S51.4,81,51.95,81z"/>
	</g>
</g>
</svg>
