<?xml version="1.0" encoding="utf-8"?>
<!-- Generator: Adobe Illustrator 19.2.1, SVG Export Plug-In . SVG Version: 6.00 Build 0)  -->
<svg version="1.1" id="Layer_1" xmlns="http://www.w3.org/2000/svg" xmlns:xlink="http://www.w3.org/1999/xlink" x="0px" y="0px"
	 viewBox="0 0 109 150" style="enable-background:new 0 0 109 150;" xml:space="preserve">
<style type="text/css">
	.st0{display:none;fill:none;stroke:#FFFFFF;stroke-width:2;stroke-linecap:round;stroke-miterlimit:10;}
	.st1{fill:#A2F1FF;}
	.st2{fill:#FF868A;}
	.st3{fill:#FFFFFF;}
	.st4{fill:#58595B;}
	.st5{fill:#E5E6E7;}
	.st6{fill:#A3D3E3;}
	.st7{fill:#DD797F;}
	.st8{fill:#6D6E71;}
	.st9{fill:#4A4A4B;}
	.st10{fill:#414042;}
	.st11{fill:#E75C54;}
	.st12{fill:#FFE336;}
	.st13{fill:#56C681;}
	.st14{fill:#F37970;}
	.st15{fill:#FFEE85;}
	.st16{fill:#79D29B;}
	.st17{fill:#C44242;}
	.st18{fill:#FFBC13;}
	.st19{fill:#3AAB64;}
	.st20{fill:#4E4D4F;}
	.st21{fill:#63CF83;}
	.st22{fill:#FFE77A;}
	.st23{fill:#4FC37B;}
	.st24{fill:#FCDA71;}
	.st25{fill:#F0F1F1;}
	.st26{fill:#E38026;}
	.st27{fill:#BBBDBF;}
</style>
<g>
	<g id="XMLID_6_">
		<g>
			<path class="st25" d="M49,49c0,3.31,2.69,6,6,6s6-2.69,6-6c0-0.34-0.03-0.67-0.09-0.99L61,48h13.59h0.01
				c1.24,2.41,2.04,5.07,2.3,7.87c0.06,0.69,0.1,1.37,0.1,2.05c0.01,2.25-1.81,4.08-4.06,4.08H55H37.05c-2.2,0-4.05-1.76-4.05-3.96
				c0-0.01,0-0.03,0-0.04c0-3.6,0.86-7,2.4-10H49l0.09,0.01C49.03,48.33,49,48.66,49,49z M69,54.5c0-0.83-0.67-1.5-1.5-1.5
				S66,53.67,66,54.5s0.67,1.5,1.5,1.5S69,55.33,69,54.5z"/>
			<path class="st8" d="M60.91,48.01C60.97,48.33,61,48.66,61,49c0,3.31-2.69,6-6,6s-6-2.69-6-6c0-0.34,0.03-0.67,0.09-0.99
				C49.56,45.17,52.03,43,55,43S60.44,45.17,60.91,48.01z"/>
			<path class="st26" d="M55,42h15l0.04-0.04c1.85,1.73,3.4,3.77,4.55,6.04H61l-0.09,0.01C60.44,45.17,57.97,43,55,43V42z"/>
			<path class="st26" d="M49,48H35.4c1.16-2.27,2.7-4.32,4.55-6.05L40,42h15v1c-2.97,0-5.44,2.17-5.91,5.01L49,48z"/>
			<path class="st27" d="M87.54,76.89c5.91,6.83,9.7,15.54,10.35,25.11h-0.07c-0.13,0.5-0.35,0.82-0.66,0.92
				c-1.6,0.55-4.95-4.95-7.48-12.3c-2.13-6.19-3.01-11.7-2.27-13.62L87.54,76.89z"/>
			<path class="st26" d="M97.89,102c0.08,0.99,0.11,1.99,0.11,3c0,2.05-0.14,4.07-0.43,6.05L97.24,111
				c-0.34,0.61-0.77,1.02-1.3,1.21c-1.6,0.55-3.8-1.09-6.12-4.23c-2.76-3.72-5.7-9.55-8.05-16.37c-1.7-4.93-2.84-9.65-3.39-13.63
				c-0.52-3.82-0.5-6.96,0.1-8.98l0.01-0.02c3.38,2.2,6.42,4.87,9.05,7.91L87.41,77c-0.74,1.92,0.14,7.43,2.27,13.62
				c2.53,7.35,5.88,12.85,7.48,12.3c0.31-0.1,0.53-0.42,0.66-0.92H97.89z"/>
			<path class="st25" d="M97.24,111l0.33,0.05c-1.73,12.33-8.69,22.98-18.57,29.63c3.13-2.81,5-6.34,5-10.18
				c0-3.42-1.48-6.59-4.01-9.23L81,121c1.84-1.9,3.98-4.45,5.99-7.72c1.15-1.85,2.06-3.63,2.8-5.28l0.03-0.02
				c2.32,3.14,4.52,4.78,6.12,4.23C96.47,112.02,96.9,111.61,97.24,111z M90.77,119.72c0.48-0.68,0.41-1.55-0.16-1.95
				c-0.56-0.39-1.41-0.17-1.88,0.51c-0.48,0.68-0.41,1.55,0.16,1.95C89.45,120.62,90.3,120.4,90.77,119.72z"/>
			<path class="st25" d="M89.82,107.98L89.79,108c-0.74,1.65-1.65,3.43-2.8,5.28c-2.01,3.27-4.15,5.82-5.99,7.72l-1.01,0.27
				C75.76,116.89,68.61,114,60.5,114c-3.68,0-7.17,0.6-10.27,1.66L50,115l-4.78-11.46c2.75-1.13,5.42-2.78,7.83-4.95
				c7.36-6.6,10.18-16.05,7.72-23.51L61,75c2.2-0.2,5.21-0.25,8.7,0.37C73.19,75.98,76,77.06,78,78l0.38-0.02
				c0.55,3.98,1.69,8.7,3.39,13.63C84.12,98.43,87.06,104.26,89.82,107.98z M83,109.5c0-0.83-0.67-1.5-1.5-1.5s-1.5,0.67-1.5,1.5
				s0.67,1.5,1.5,1.5S83,110.33,83,109.5z M72,81.5c0-0.83-0.67-1.5-1.5-1.5S69,80.67,69,81.5s0.67,1.5,1.5,1.5S72,82.33,72,81.5z
				 M57,106.5c0-0.83-0.67-1.5-1.5-1.5s-1.5,0.67-1.5,1.5s0.67,1.5,1.5,1.5S57,107.33,57,106.5z"/>
			<path class="st26" d="M84,130.5c0,3.84-1.87,7.37-5,10.18c-3.92,2.65-8.3,4.66-12.99,5.9L66,146.55
				c-1.76,0.29-3.61,0.45-5.5,0.45c-9.35,0-17.42-3.83-21.2-9.38c-1.48-2.15-2.3-4.57-2.3-7.12c0-6.53,5.4-12.17,13.23-14.84
				c3.1-1.06,6.59-1.66,10.27-1.66c8.11,0,15.26,2.89,19.49,7.27C82.52,123.91,84,127.08,84,130.5z M74.29,130.5
				c0-4.14-6.04-7.5-13.5-7.5c-7.45,0-13.5,3.36-13.5,7.5s6.05,7.5,13.5,7.5C68.25,138,74.29,134.64,74.29,130.5z"/>
			<circle class="st27" cx="81.5" cy="109.5" r="1.5"/>
			<path class="st25" d="M78.49,68.98L78.48,69c-0.6,2.02-0.62,5.16-0.1,8.98L78,78c-2-0.94-4.81-2.02-8.3-2.63
				C66.21,74.75,63.2,74.8,61,75l-0.23,0.08c-0.67-2.04-1.74-3.93-3.22-5.58c-4.22-4.7-10.83-6.29-17.45-4.85
				C44.74,62.94,49.76,62,55,62C63.67,62,71.74,64.56,78.49,68.98z M69.51,70.63c0.46-0.51,0.34-1.38-0.28-1.93
				c-0.62-0.55-1.49-0.58-1.95-0.07c-0.46,0.52-0.34,1.38,0.28,1.94C68.18,71.12,69.05,71.15,69.51,70.63z"/>
			<circle class="st27" cx="70.5" cy="81.5" r="1.5"/>
			<path class="st27" d="M60.79,123c7.46,0,13.5,3.36,13.5,7.5s-6.04,7.5-13.5,7.5c-7.45,0-13.5-3.36-13.5-7.5S53.34,123,60.79,123z
				"/>
			<path class="st27" d="M70.04,41.96L70,42H55H40l-0.05-0.05c4.49-4.21,10.75-6.56,17.55-5.81C62.31,36.67,66.68,38.79,70.04,41.96
				z"/>
			<path class="st27" d="M69.23,68.7c0.62,0.55,0.74,1.42,0.28,1.93c-0.46,0.52-1.33,0.49-1.95-0.06c-0.62-0.56-0.74-1.42-0.28-1.94
				C67.74,68.12,68.61,68.15,69.23,68.7z"/>
			<circle class="st27" cx="67.5" cy="54.5" r="1.5"/>
			<path class="st25" d="M66,146.55l0.01,0.03C62.5,147.51,58.81,148,55,148c-11.21,0-21.41-4.28-29.07-11.31
				c1.86,0.53,4.18,1.02,6.86,1.22c2.36,0.17,4.46,0.08,6.21-0.1l0.3-0.19c3.78,5.55,11.85,9.38,21.2,9.38
				C62.39,147,64.24,146.84,66,146.55z"/>
			<path class="st26" d="M45.22,103.54c-7.9,3.24-16.47,2.11-21.57-3.57c-1.59-1.77-2.71-3.83-3.37-6.05
				c-1.81-6.1-0.17-13.43,4.51-19.45l-0.04-0.04c4.32-4.27,9.54-7.64,15.35-9.78c6.62-1.44,13.23,0.15,17.45,4.85
				c1.48,1.65,2.55,3.54,3.22,5.58c2.46,7.46-0.36,16.91-7.72,23.51C50.64,100.76,47.97,102.41,45.22,103.54z M46.58,91.89
				c5.43-4.87,6.95-12.02,3.41-15.96c-3.54-3.94-10.81-3.18-16.23,1.7c-5.42,4.87-6.95,12.02-3.41,15.96
				C33.89,97.53,41.16,96.77,46.58,91.89z"/>
			<circle class="st27" cx="55.5" cy="106.5" r="1.5"/>
			<path class="st27" d="M49.99,75.93c3.54,3.94,2.02,11.09-3.41,15.96c-5.42,4.88-12.69,5.64-16.23,1.7
				c-3.54-3.94-2.01-11.09,3.41-15.96C39.18,72.75,46.45,71.99,49.99,75.93z"/>
			<path class="st25" d="M50,115l0.23,0.66C42.4,118.33,37,123.97,37,130.5c0,2.55,0.82,4.97,2.3,7.12l-0.3,0.19
				c-1.75,0.18-3.85,0.27-6.21,0.1c-2.68-0.2-5-0.69-6.86-1.22c-8.33-7.65-13.64-18.54-13.92-30.68L13,106
				c0.75-2.05,1.82-4.47,3.4-7.04C17.6,97,18.84,95.35,20,94l0.28-0.08c0.66,2.22,1.78,4.28,3.37,6.05
				c5.1,5.68,13.67,6.81,21.57,3.57L50,115z M41,113.5c0-0.83-0.67-1.5-1.5-1.5s-1.5,0.67-1.5,1.5s0.67,1.5,1.5,1.5
				S41,114.33,41,113.5z M30,129.5c0-0.83-0.56-1.5-1.25-1.5s-1.25,0.67-1.25,1.5s0.56,1.5,1.25,1.5S30,130.33,30,129.5z M20.5,109
				c0-0.83-0.56-1.5-1.25-1.5S18,108.17,18,109s0.56,1.5,1.25,1.5S20.5,109.83,20.5,109z"/>
			<circle class="st27" cx="39.5" cy="113.5" r="1.5"/>
			<ellipse class="st27" cx="28.75" cy="129.5" rx="1.25" ry="1.5"/>
			<path class="st25" d="M24.75,74.43l0.04,0.04c-4.68,6.02-6.32,13.35-4.51,19.45L20,94c-1.16,1.35-2.4,3-3.6,4.96
				c-1.58,2.57-2.65,4.99-3.4,7.04l-0.99,0.01C12,105.67,12,105.34,12,105C12,93.04,16.88,82.23,24.75,74.43z"/>
			<ellipse class="st27" cx="19.25" cy="109" rx="1.25" ry="1.5"/>
		</g>
	</g>
	<g>
		<path class="st10" d="M70.5,84c1.379,0,2.5-1.121,2.5-2.5S71.879,79,70.5,79S68,80.121,68,81.5S69.121,84,70.5,84z M70.5,81
			c0.275,0,0.5,0.225,0.5,0.5S70.775,82,70.5,82S70,81.775,70,81.5S70.225,81,70.5,81z"/>
		<path class="st10" d="M81.5,112c1.379,0,2.5-1.121,2.5-2.5s-1.121-2.5-2.5-2.5s-2.5,1.121-2.5,2.5S80.121,112,81.5,112z M81.5,109
			c0.275,0,0.5,0.225,0.5,0.5s-0.225,0.5-0.5,0.5s-0.5-0.225-0.5-0.5S81.225,109,81.5,109z"/>
		<path class="st10" d="M28.75,132c1.24,0,2.25-1.121,2.25-2.5s-1.01-2.5-2.25-2.5s-2.25,1.121-2.25,2.5S27.51,132,28.75,132z
			 M28.75,129c0.072,0,0.25,0.175,0.25,0.5s-0.178,0.5-0.25,0.5s-0.25-0.175-0.25-0.5S28.678,129,28.75,129z"/>
		<path class="st10" d="M92.054,118.347c-0.1-0.576-0.408-1.071-0.873-1.398c-0.46-0.321-1.034-0.44-1.612-0.333
			c-0.656,0.119-1.262,0.519-1.654,1.088c-0.411,0.581-0.581,1.292-0.468,1.95c0.1,0.576,0.408,1.071,0.873,1.398
			c0.351,0.244,0.767,0.371,1.201,0.371c0.136,0,0.273-0.013,0.411-0.038c0.654-0.118,1.259-0.517,1.657-1.093
			C91.998,119.712,92.167,119.003,92.054,118.347z M89.953,119.143c-0.002,0.003-0.005,0.006-0.007,0.009
			c-0.098,0.143-0.236,0.241-0.372,0.266c-0.048,0.01-0.093,0.007-0.109-0.005c-0.03-0.021-0.043-0.071-0.048-0.1
			c-0.018-0.105,0.007-0.28,0.137-0.464c0.098-0.143,0.236-0.241,0.372-0.266c0.02-0.004,0.039-0.006,0.056-0.006
			c0.024,0,0.044,0.004,0.054,0.011c0.03,0.021,0.043,0.071,0.048,0.1C90.101,118.793,90.076,118.968,89.953,119.143z"/>
		<path class="st10" d="M66.531,67.967c-0.832,0.941-0.675,2.41,0.357,3.344c0.002,0.002,0.005,0.004,0.007,0.006
			c0.495,0.439,1.124,0.684,1.744,0.684c0.048,0,0.095-0.001,0.142-0.004c0.582-0.035,1.106-0.286,1.471-0.698
			c0.376-0.417,0.565-0.97,0.533-1.557c-0.037-0.668-0.361-1.321-0.891-1.791C68.868,67.042,67.362,67.046,66.531,67.967z
			 M68.761,69.967c-0.022,0.026-0.072,0.032-0.101,0.034c-0.105,0.001-0.274-0.037-0.433-0.176c-0.23-0.21-0.26-0.464-0.205-0.525
			c0.052-0.058,0.31-0.06,0.544,0.148c0.131,0.117,0.214,0.269,0.222,0.406C68.791,69.902,68.783,69.943,68.761,69.967z"/>
		<path class="st10" d="M19.25,106.5c-1.24,0-2.25,1.121-2.25,2.5s1.01,2.5,2.25,2.5s2.25-1.121,2.25-2.5S20.49,106.5,19.25,106.5z
			 M19.25,109.5c-0.072,0-0.25-0.175-0.25-0.5s0.178-0.5,0.25-0.5s0.25,0.175,0.25,0.5S19.322,109.5,19.25,109.5z"/>
		<path class="st10" d="M55.5,109c1.379,0,2.5-1.121,2.5-2.5s-1.121-2.5-2.5-2.5s-2.5,1.121-2.5,2.5S54.121,109,55.5,109z M55.5,106
			c0.275,0,0.5,0.225,0.5,0.5s-0.225,0.5-0.5,0.5s-0.5-0.225-0.5-0.5S55.225,106,55.5,106z"/>
		<path class="st10" d="M67.5,57c1.379,0,2.5-1.122,2.5-2.5S68.879,52,67.5,52S65,53.122,65,54.5S66.121,57,67.5,57z M67.5,54
			c0.275,0,0.5,0.224,0.5,0.5S67.775,55,67.5,55S67,54.776,67,54.5S67.225,54,67.5,54z"/>
		<path class="st10" d="M39.5,116c1.379,0,2.5-1.121,2.5-2.5s-1.121-2.5-2.5-2.5s-2.5,1.121-2.5,2.5S38.121,116,39.5,116z M39.5,113
			c0.275,0,0.5,0.225,0.5,0.5s-0.225,0.5-0.5,0.5s-0.5-0.225-0.5-0.5S39.225,113,39.5,113z"/>
		<path class="st10" d="M35.878,98.094c0.229,0.013,0.459,0.019,0.69,0.019c3.881,0,7.979-1.701,11.347-4.733
			c2.938-2.636,4.959-5.974,5.689-9.4c0.78-3.657,0.025-6.99-2.127-9.385c-1.725-1.92-4.151-3.016-7.017-3.167
			c-4.073-0.215-8.469,1.503-12.038,4.716c-2.934,2.636-4.952,5.974-5.684,9.398c-0.782,3.658-0.028,6.991,2.123,9.386
			C30.587,96.847,33.013,97.942,35.878,98.094z M30.65,86.377c0.558-2.605,2.136-5.184,4.447-7.261
			c2.604-2.345,5.815-3.708,8.686-3.708c0.156,0,0.312,0.004,0.467,0.012c1.242,0.066,2.988,0.439,4.253,1.846
			c1.273,1.418,1.696,3.505,1.189,5.877c-0.556,2.605-2.135,5.183-4.447,7.257c-0.001,0.001-0.002,0.002-0.003,0.003
			c-2.746,2.473-6.16,3.848-9.153,3.696c-1.242-0.066-2.987-0.439-4.252-1.847C30.564,90.837,30.144,88.75,30.65,86.377z"/>
		<path class="st10" d="M60.79,140c8.691,0,15.5-4.173,15.5-9.5s-6.809-9.5-15.5-9.5s-15.5,4.173-15.5,9.5S52.099,140,60.79,140z
			 M60.79,125c6.777,0,11.5,2.898,11.5,5.5s-4.723,5.5-11.5,5.5c-6.582,0-11.5-2.903-11.5-5.5S54.208,125,60.79,125z"/>
		<path class="st10" d="M100,148H85c-0.553,0-1,0.447-1,1s0.447,1,1,1h15c0.553,0,1-0.447,1-1S100.553,148,100,148z"/>
		<path class="st10" d="M80,148H68.312c4.198-1.298,8.162-3.198,11.804-5.661c10.585-7.124,17.669-18.427,19.433-30.999
			c0.3-2.042,0.451-4.175,0.451-6.34c0-1.149-0.038-2.18-0.116-3.148c-0.665-9.766-4.41-18.851-10.831-26.271
			c-2.776-3.208-5.963-5.993-9.467-8.274c-1.948-1.275-3.983-2.385-6.084-3.334c1.411-0.129,2.719-0.74,3.732-1.756
			c1.146-1.151,1.773-2.68,1.767-4.296c0-0.67-0.034-1.376-0.108-2.235c-0.28-3.009-1.126-5.903-2.514-8.6
			c-0.028-0.055-0.059-0.108-0.091-0.159c-1.235-2.391-2.877-4.552-4.875-6.421c-3.68-3.472-8.434-5.699-13.412-6.31V18
			c0-0.552-0.447-1-1-1s-1,0.448-1,1v16.03c-0.669-0.027-1.336-0.028-2,0V29c0-0.552-0.447-1-1-1s-1,0.448-1,1v5.201
			c-4.994,0.629-9.693,2.798-13.416,6.289c-2.023,1.892-3.694,4.113-4.963,6.597C31.906,50.427,31,54.201,31,58.04
			c0,3.109,2.43,5.666,5.516,5.933c-4.854,2.194-9.365,5.272-13.174,9.036C14.738,81.537,10,92.898,10,105
			c0,0.359,0,0.708,0.011,1.056c0.284,12.34,5.458,23.742,14.566,32.108c4.973,4.563,10.838,7.89,17.163,9.836H10
			c-0.553,0-1,0.447-1,1s0.447,1,1,1h70c0.553,0,1-0.447,1-1S80.553,148,80,148z M18.348,94.432
			c-0.998,1.255-1.938,2.596-2.799,4.004c-0.475,0.772-0.914,1.57-1.338,2.38c0.441-4.387,1.585-8.62,3.359-12.578
			C17.515,90.357,17.765,92.443,18.348,94.432z M26.369,75.698c0.027-0.034,0.044-0.073,0.068-0.108
			c4.065-3.943,8.97-7.055,14.224-9.011c6.097-1.283,11.847,0.3,15.4,4.258c1.266,1.41,2.21,3.048,2.809,4.871
			c2.281,6.914-0.595,15.511-7.158,21.397c-2.179,1.962-4.619,3.505-7.251,4.586c-7.359,3.019-14.945,1.82-19.323-3.057
			c-1.357-1.511-2.347-3.288-2.94-5.282C20.545,87.783,22.104,81.184,26.369,75.698z M76.162,76.135
			c-2.04-0.785-4.146-1.375-6.287-1.749c-2.445-0.435-4.932-0.581-7.414-0.471c-0.776-2.13-1.914-4.069-3.423-5.751
			c-1.57-1.749-3.466-3.129-5.577-4.13C53.973,64.015,54.485,64,55,64c7.545,0,14.847,2.069,21.234,5.952
			C75.965,71.636,75.941,73.704,76.162,76.135z M54.385,100.079c7.295-6.541,10.662-16.084,8.686-24.197
			c2.16-0.061,4.325,0.095,6.458,0.474c2.362,0.412,4.671,1.113,6.894,2.054c0.597,4.232,1.79,9.016,3.457,13.852
			c2.306,6.691,5.319,12.812,8.272,16.819c-0.623,1.264-1.276,2.491-2.012,3.676c-1.481,2.408-3.205,4.661-5.111,6.734
			C76.232,114.795,68.614,112,60.5,112c-3.496,0-6.862,0.523-10.039,1.509l-3.564-8.544
			C49.602,103.74,52.124,102.115,54.385,100.079z M50.878,117.553c3.011-1.03,6.248-1.553,9.622-1.553
			c7.276,0,14.024,2.489,18.046,6.653c2.26,2.358,3.454,5.072,3.454,7.847c0,3.104-1.471,6.076-4.246,8.604
			c-3.678,2.467-7.711,4.305-11.993,5.467c-0.029,0.003-0.057,0-0.086,0.005C63.97,144.857,62.229,145,60.5,145
			c-8.354,0-16.027-3.339-19.553-8.514C39.655,134.608,39,132.594,39,130.5C39,125.095,43.661,120.013,50.878,117.553z
			 M37.766,138.908c1.483,2.125,3.474,3.968,5.836,5.483c-4.195-1.211-8.177-3.087-11.799-5.575
			c0.305,0.031,0.609,0.069,0.915,0.092c0.857,0.062,1.722,0.093,2.589,0.093C36.125,139,36.946,138.962,37.766,138.908z
			 M85.916,131.926c0.05-0.474,0.084-0.949,0.084-1.426c0-3.391-1.247-6.659-3.613-9.534c2.038-2.2,3.878-4.596,5.453-7.158
			c0.607-0.977,1.163-1.979,1.694-3.004c1.9,2.171,3.701,3.334,5.391,3.478C93.408,120.831,90.303,126.89,85.916,131.926z
			 M95.527,98.772c-1.127-1.84-2.568-4.769-3.956-8.803c-0.91-2.643-1.521-4.965-1.905-6.874
			C92.694,87.86,94.683,93.163,95.527,98.772z M85.27,77.382c-0.513,3.304,0.889,9.153,2.519,13.889
			c1.353,3.929,4.596,12.205,8.207,13.502c0,0.078,0.004,0.147,0.004,0.226c0,1.61-0.115,3.185-0.297,4.727
			c-0.077,0.093-0.149,0.192-0.21,0.301c-0.122,0.217-0.191,0.286-0.188,0.287c-0.25,0.026-1.632-0.484-3.879-3.525
			c-2.741-3.694-5.572-9.465-7.767-15.83c-1.604-4.653-2.744-9.235-3.299-13.248c-0.267-1.962-0.376-3.711-0.341-5.181
			C81.902,73.98,83.652,75.609,85.27,77.382z M51.063,48.336C51.383,46.403,53.038,45,55,45s3.617,1.403,3.937,3.336
			c0.003,0.013,0.005,0.026,0.008,0.04C58.981,48.576,59,48.786,59,49c0,2.206-1.794,4-4,4s-4-1.794-4-4
			C51,48.786,51.019,48.576,51.063,48.336z M47.589,46h-8.593c0.531-0.708,1.121-1.368,1.743-2h8.01
			C48.271,44.599,47.879,45.272,47.589,46z M62.406,46c-0.292-0.729-0.684-1.401-1.162-2h7.999c0.628,0.636,1.223,1.296,1.753,2
			H62.406z M57.281,38.128c2.225,0.245,4.395,0.892,6.413,1.872H46.321c2.7-1.298,5.673-1.995,8.719-1.995
			C55.784,38.005,56.532,38.045,57.281,38.128z M35,58c0-2.803,0.559-5.487,1.663-8h10.406c0.495,3.94,3.859,7,7.931,7
			s7.436-3.06,7.931-7h10.385c0.849,1.926,1.397,3.952,1.593,6.042C74.971,56.771,75,57.367,75,57.929
			c0.002,0.553-0.211,1.074-0.601,1.465C74.01,59.785,73.492,60,72.94,60H37.05C35.938,60,35,59.103,35,58z M14.018,106.144
			c0.87-2.337,1.954-4.579,3.235-6.663c0.602-0.983,1.246-1.926,1.918-2.832c0.752,1.705,1.745,3.27,2.991,4.656
			c3.552,3.957,8.687,6.032,14.281,6.031c2.804,0,5.723-0.527,8.616-1.594l3.503,8.406C40.173,117.343,35,123.528,35,130.5
			c0,2.219,0.551,4.422,1.593,6.468c-1.25,0.046-2.498,0.033-3.729-0.055c-1.465-0.109-2.924-0.327-4.363-0.628
			c-0.411-0.349-0.82-0.701-1.219-1.067C19.03,127.638,14.327,117.323,14.018,106.144z"/>
		<path class="st10" d="M71,28h1v1c0,0.552,0.447,1,1,1s1-0.448,1-1v-1h1c0.553,0,1-0.448,1-1s-0.447-1-1-1h-1v-1
			c0-0.552-0.447-1-1-1s-1,0.448-1,1v1h-1c-0.553,0-1,0.448-1,1S70.447,28,71,28z"/>
		<path class="st10" d="M5,57H4v-1c0-0.552-0.447-1-1-1s-1,0.448-1,1v1H1c-0.553,0-1,0.448-1,1s0.447,1,1,1h1v1c0,0.552,0.447,1,1,1
			s1-0.448,1-1v-1h1c0.553,0,1-0.448,1-1S5.553,57,5,57z"/>
		<path class="st10" d="M94,4h1v1c0,0.552,0.447,1,1,1s1-0.448,1-1V4h1c0.553,0,1-0.448,1-1s-0.447-1-1-1h-1V1c0-0.552-0.447-1-1-1
			s-1,0.448-1,1v1h-1c-0.553,0-1,0.448-1,1S93.447,4,94,4z"/>
		<path class="st10" d="M32,19h1v1c0,0.552,0.447,1,1,1s1-0.448,1-1v-1h1c0.553,0,1-0.448,1-1s-0.447-1-1-1h-1v-1
			c0-0.552-0.447-1-1-1s-1,0.448-1,1v1h-1c-0.553,0-1,0.448-1,1S31.447,19,32,19z"/>
		<path class="st10" d="M108,46h-1v-1c0-0.552-0.447-1-1-1s-1,0.448-1,1v1h-1c-0.553,0-1,0.448-1,1s0.447,1,1,1h1v1
			c0,0.552,0.447,1,1,1s1-0.448,1-1v-1h1c0.553,0,1-0.448,1-1S108.553,46,108,46z"/>
		<path class="st10" d="M13,9.5C13,8.122,11.879,7,10.5,7S8,8.122,8,9.5S9.121,12,10.5,12S13,10.878,13,9.5z M10,9.5
			C10,9.224,10.225,9,10.5,9S11,9.224,11,9.5S10.775,10,10.5,10S10,9.776,10,9.5z"/>
		<path class="st10" d="M94.5,27c1.379,0,2.5-1.122,2.5-2.5S95.879,22,94.5,22S92,23.122,92,24.5S93.121,27,94.5,27z M94.5,24
			c0.275,0,0.5,0.224,0.5,0.5S94.775,25,94.5,25S94,24.776,94,24.5S94.225,24,94.5,24z"/>
		<path class="st10" d="M66,10c1.379,0,2.5-1.122,2.5-2.5S67.379,5,66,5s-2.5,1.122-2.5,2.5S64.621,10,66,10z M66,7
			c0.275,0,0.5,0.224,0.5,0.5S66.275,8,66,8s-0.5-0.224-0.5-0.5S65.725,7,66,7z"/>
		<path class="st10" d="M27.5,37.5c1.379,0,2.5-1.122,2.5-2.5s-1.121-2.5-2.5-2.5S25,33.622,25,35S26.121,37.5,27.5,37.5z
			 M27.5,34.5c0.275,0,0.5,0.224,0.5,0.5s-0.225,0.5-0.5,0.5S27,35.276,27,35S27.225,34.5,27.5,34.5z"/>
	</g>
</g>
</svg>
